<svg version="1.1" xmlns="http://www.w3.org/2000/svg"
	 viewBox="-388.2 1617.5 849.8 851">
<g>
	<path fill="#F1C410" d="M-42.1,9.4c18-11.1,39-17.5,61.6-17.5h184.8v0.7l-47.8,56.8H27.7c-51.7,0-94.5,37.4-103.4,86.4V276H93.9
		c91.9,0,166.3-74.4,166.3-166.3V-56.8H90.7C36.4-56.8-11.8-30.8-42.1,9.4z"/>
	<path fill="#F1C410" d="M36-379.4c-235,0-425.5,190.5-425.5,425.5S-199,471.6,36,471.6S461.5,281.1,461.5,46.1S271-379.4,36-379.4z
		 M-201.9,235.1c-42.5-52-68.1-118-68.1-189.9C-270-122.2-131.7-258,38.7-258c71.4,0,140.6,24.5,195.4,68.6c0,0-191.5-0.4-195.4-0.4
		c-4.1,0-7.9,0.2-11.8,0.4L15-188.5C-97.8-177.8-193.6-84.8-200.3,18.9C-203.8,123.3-201.9,235.1-201.9,235.1z M326.9,107.8
		c0,128.6-104.2,232.8-232.8,232.8h-232.8v-233c0-128.6,104.2-232.8,232.8-232.8h232.8V107.8z"/>
</g>
<g>
	<linearGradient id="SVGID_1_" gradientUnits="userSpaceOnUse" x1="32.7581" y1="2032.4034" x2="204.6992" y2="2244.2454">
		<stop  offset="0" style="stop-color:#F1C410"/>
		<stop  offset="1" style="stop-color:#E2AD17"/>
	</linearGradient>
	<path fill="url(#SVGID_1_)" d="M-41.5,2006.2c18-11.1,39-17.5,61.6-17.5h184.8v0.7l-47.8,56.8H28.4c-51.7,0-94.5,37.4-103.4,86.4
		v140.2H94.5c91.9,0,166.3-74.4,166.3-166.3v-166.5H91.3C37,1940.1-11.1,1966-41.5,2006.2z"/>
	<linearGradient id="SVGID_2_" gradientUnits="userSpaceOnUse" x1="-116.2196" y1="1854.6923" x2="320.7781" y2="2393.1001">
		<stop  offset="0" style="stop-color:#F1C410"/>
		<stop  offset="1" style="stop-color:#E2AD17"/>
	</linearGradient>
	<path fill="url(#SVGID_2_)" d="M36.6,1617.5c-235,0-425.5,190.5-425.5,425.5s190.5,425.5,425.5,425.5S462.1,2278,462.1,2043
		S271.6,1617.5,36.6,1617.5z M-201.3,2232c-42.5-52-68.1-118-68.1-189.9c0-167.4,138.3-303.2,308.6-303.2
		c71.4,0,140.6,24.5,195.4,68.6c0,0-191.5-0.4-195.4-0.4c-4.1,0-7.9,0.2-11.8,0.4l-11.8,0.9c-112.9,10.8-208.6,103.7-215.3,207.4
		C-203.2,2120.2-201.3,2232-201.3,2232z M327.5,2104.7c0,128.6-104.2,232.8-232.8,232.8h-232.8v-233
		c0-128.6,104.2-232.8,232.8-232.8h232.8V2104.7z"/>
</g>
<path fill="none" d="M15.7,798.6l11.8-0.9c3.9-0.2,7.8-0.4,11.8-0.4c3.9,0,195.4,0.4,195.4,0.4c-54.9-44.1-124-68.6-195.4-68.6
	c-170.4,0-308.6,135.8-308.6,303.2c0,72,25.6,137.9,68.1,189.9c0,0-1.9-111.8,1.6-216.2C-193,902.3-97.2,809.3,15.7,798.6z"/>
<path fill="#F1C410" d="M459.6,1080c-0.2,1.6-0.4,3.2-0.6,4.8C459.2,1083.2,459.4,1081.6,459.6,1080z"/>
<path fill="#F1C410" d="M102,1453.7c-0.8,0.1-1.5,0.2-2.3,0.3C100.5,1454,101.3,1453.9,102,1453.7z"/>
<path fill="#F1C410" d="M213.7,1420.3c-0.8,0.4-1.6,0.7-2.4,1.1C212.1,1421,212.9,1420.6,213.7,1420.3z"/>
<path fill="#F1C410" d="M209.1,1422.3c-0.8,0.3-1.6,0.7-2.3,1C207.5,1423,208.3,1422.7,209.1,1422.3z"/>
<path fill="#F1C410" d="M204.4,1424.4c-0.8,0.3-1.5,0.7-2.3,1C202.9,1425,203.6,1424.7,204.4,1424.4z"/>
<path fill="#F1C410" d="M197.9,1427.1c-0.8,0.3-1.7,0.7-2.5,1C196.3,1427.8,197.1,1427.4,197.9,1427.1z"/>
<path fill="#F1C410" d="M222.8,1416c-0.8,0.4-1.6,0.8-2.4,1.2C221.2,1416.7,222,1416.4,222.8,1416z"/>
<path fill="#F1C410" d="M218.3,1418.1c-0.8,0.4-1.6,0.8-2.4,1.1C216.7,1418.9,217.5,1418.5,218.3,1418.1z"/>
<path fill="#F1C410" d="M169.1,1437.7c-0.8,0.3-1.6,0.5-2.3,0.8C167.6,1438.2,168.3,1438,169.1,1437.7z"/>
<path fill="#F1C410" d="M173.9,1436.1c-0.8,0.3-1.5,0.5-2.3,0.8C172.4,1436.6,173.2,1436.4,173.9,1436.1z"/>
<path fill="#F1C410" d="M227.3,1413.7c-0.8,0.4-1.6,0.8-2.4,1.2C225.7,1414.5,226.5,1414.1,227.3,1413.7z"/>
<path fill="#F1C410" d="M192.9,1429.1c-0.7,0.3-1.5,0.6-2.2,0.9C191.4,1429.7,192.2,1429.4,192.9,1429.1z"/>
<path fill="#F1C410" d="M178.7,1434.4c-0.8,0.3-1.5,0.5-2.3,0.8C177.2,1435,177.9,1434.7,178.7,1434.4z"/>
<path fill="#F1C410" d="M188.2,1430.9c-0.8,0.3-1.5,0.6-2.3,0.9C186.7,1431.5,187.5,1431.2,188.2,1430.9z"/>
<path fill="#F1C410" d="M183.5,1432.7c-0.8,0.3-1.5,0.6-2.3,0.8C181.9,1433.3,182.7,1433,183.5,1432.7z"/>
<path fill="#F1C410" d="M244.9,1404.4c-0.8,0.5-1.6,0.9-2.4,1.3C243.3,1405.3,244.1,1404.8,244.9,1404.4z"/>
<path fill="#F1C410" d="M266.3,1391.5c-1,0.6-1.9,1.2-2.9,1.8C264.3,1392.8,265.3,1392.1,266.3,1391.5z"/>
<path fill="#F1C410" d="M277.5,1384c-3.7,2.5-7.4,5-11.2,7.4C270.1,1389.1,273.8,1386.6,277.5,1384z"/>
<path fill="#F1C410" d="M262.1,1394.2c-0.9,0.5-1.8,1.1-2.6,1.6C260.3,1395.3,261.2,1394.7,262.1,1394.2z"/>
<path fill="#F1C410" d="M285.1,1378.7c-0.9,0.6-1.8,1.3-2.7,1.9C283.3,1380,284.2,1379.3,285.1,1378.7z"/>
<path fill="#F1C410" d="M231.7,1411.5c-0.8,0.4-1.6,0.8-2.4,1.2C230.1,1412.3,230.9,1411.9,231.7,1411.5z"/>
<path fill="#F1C410" d="M281.2,1381.5c-0.9,0.7-1.9,1.3-2.8,2C279.3,1382.8,280.3,1382.1,281.2,1381.5z"/>
<path fill="#F1C410" d="M289,1375.8c-0.9,0.6-1.7,1.3-2.6,1.9C287.3,1377.1,288.2,1376.5,289,1375.8z"/>
<path fill="#F1C410" d="M253.6,1399.4c-0.8,0.5-1.6,1-2.5,1.5C251.9,1400.3,252.7,1399.9,253.6,1399.4z"/>
<path fill="#F1C410" d="M236.2,1409.1c-0.8,0.4-1.6,0.8-2.4,1.3C234.6,1410,235.4,1409.6,236.2,1409.1z"/>
<path fill="#F1C410" d="M240.6,1406.8c-0.8,0.4-1.6,0.9-2.4,1.3C238.9,1407.6,239.8,1407.2,240.6,1406.8z"/>
<path fill="#F1C410" d="M164.3,1439.3c-0.8,0.2-1.6,0.5-2.3,0.7C162.7,1439.7,163.5,1439.5,164.3,1439.3z"/>
<path fill="#F1C410" d="M249.3,1401.9c-0.8,0.5-1.6,0.9-2.4,1.4C247.6,1402.8,248.4,1402.4,249.3,1401.9z"/>
<path fill="#F1C410" d="M257.8,1396.8c-0.8,0.5-1.7,1-2.5,1.5C256.1,1397.8,257,1397.3,257.8,1396.8z"/>
<path fill="#F1C410" d="M70.8,1457.4c-0.8,0.1-1.6,0.1-2.4,0.2C69.2,1457.5,70,1457.4,70.8,1457.4z"/>
<path fill="#F1C410" d="M65.5,1457.8c-0.8,0.1-1.6,0.1-2.4,0.2C64,1457.9,64.8,1457.8,65.5,1457.8z"/>
<path fill="#F1C410" d="M86.5,1455.8c-0.8,0.1-1.6,0.2-2.4,0.3C84.9,1456,85.7,1455.9,86.5,1455.8z"/>
<path fill="#F1C410" d="M60.2,1458.1c-0.8,0-1.5,0.1-2.3,0.1C58.7,1458.2,59.5,1458.1,60.2,1458.1z"/>
<path fill="#F1C410" d="M76.1,1456.9c-0.8,0.1-1.6,0.1-2.4,0.2C74.5,1457.1,75.3,1457,76.1,1456.9z"/>
<path fill="#F1C410" d="M81.3,1456.4c-0.8,0.1-1.6,0.2-2.4,0.2C79.7,1456.6,80.5,1456.5,81.3,1456.4z"/>
<path fill="#F1C410" d="M54.9,1458.3c-0.7,0-1.5,0.1-2.3,0.1C53.4,1458.4,54.1,1458.4,54.9,1458.3z"/>
<path fill="#F1C410" d="M-139.9,1329.6v-233c0-128.6,104.2-232.8,232.8-232.8h232.8v233c0,59.8-22.6,114.3-59.6,155.6
	c38.1-41.5,61.4-96.8,61.4-157.5v-233l132.2,132.2l0.4,80.8c-0.2,1.6-0.3,3.3-0.5,4.9c1.7-15.3,2.5-30.9,2.5-46.6
	c0-235-190.5-425.5-425.5-425.5s-425.5,190.5-425.5,425.5s190.5,425.5,425.5,425.5l-172.2-129.1H-139.9z M-201.3,1222.2
	c-42.5-52-68.1-118-68.1-189.9c0-167.4,138.3-303.2,308.6-303.2c71.4,0,140.6,24.5,195.4,68.6c0,0-191.5-0.4-195.4-0.4
	c-4.1,0-7.9,0.2-11.8,0.4l-11.8,0.9C-97.2,809.3-193,902.3-199.7,1006C-203.2,1110.4-201.3,1222.2-201.3,1222.2z"/>
<path fill="#F1C410" d="M49.4,1458.5c-0.7,0-1.4,0-2.1,0.1C48,1458.6,48.7,1458.6,49.4,1458.5z"/>
<path fill="#F1C410" d="M159.4,1440.8c-0.8,0.2-1.6,0.5-2.3,0.7C157.8,1441.2,158.6,1441,159.4,1440.8z"/>
<path fill="#F1C410" d="M94.5,1263.1H-75v-140.2c3.5-19.4,12.3-37,24.9-51.1c-13.5,14.5-23,32.8-26.7,53.1v140.2H92.7
	c49.3,0,93.5-21.4,124-55.4C186.3,1242.5,142.8,1263.1,94.5,1263.1z"/>
<path fill="#F1C410" d="M204.9,979.7V979H20.1c-22.6,0-43.6,6.3-61.6,17.5c2.7-3.6,5.6-7.1,8.5-10.4c-3.6,3.9-7.1,8.1-10.3,12.3
	c18-11.1,39-17.5,61.6-17.5h184.8v0.7l-46.2,54.9h0.1L204.9,979.7z"/>
<path fill="#F1C410" d="M323.8,1347.2c6.9-6.3,13.5-12.8,19.9-19.5C337.3,1334.5,330.6,1341,323.8,1347.2z"/>
<path fill="#F1C410" d="M42,1458.7c0.6,0,1.2,0,1.8,0C43.2,1458.7,42.6,1458.7,42,1458.7z"/>
<path fill="#F1C410" d="M459,1085.1c-0.2,1.6-0.4,3.2-0.6,4.8C458.6,1088.3,458.8,1086.7,459,1085.1z"/>
<path fill="#F1C410" d="M144.6,1444.9c-0.8,0.2-1.5,0.4-2.3,0.6C143.1,1445.3,143.8,1445.1,144.6,1444.9z"/>
<path fill="#F1C410" d="M134.5,1447.4c-0.7,0.2-1.4,0.3-2.1,0.5C133.1,1447.8,133.8,1447.6,134.5,1447.4z"/>
<path fill="#F1C410" d="M154.5,1442.2c-0.8,0.2-1.5,0.4-2.3,0.7C153,1442.6,153.7,1442.4,154.5,1442.2z"/>
<path fill="#F1C410" d="M129.3,1448.6c-0.7,0.1-1.3,0.3-2,0.4C128,1448.9,128.7,1448.7,129.3,1448.6z"/>
<path fill="#F1C410" d="M149.6,1443.6c-0.8,0.2-1.5,0.4-2.3,0.6C148,1444,148.8,1443.8,149.6,1443.6z"/>
<path fill="#F1C410" d="M117.3,1451.1c-0.6,0.1-1.1,0.2-1.7,0.3C116.2,1451.3,116.8,1451.2,117.3,1451.1z"/>
<path fill="#F1C410" d="M107.1,1452.9c-0.7,0.1-1.5,0.2-2.2,0.4C105.7,1453.2,106.4,1453,107.1,1452.9z"/>
<path fill="#F1C410" d="M96.9,1454.5c-0.8,0.1-1.5,0.2-2.3,0.3C95.3,1454.7,96.1,1454.6,96.9,1454.5z"/>
<path fill="#F1C410" d="M91.7,1455.2c-0.8,0.1-1.6,0.2-2.3,0.3C90.1,1455.4,90.9,1455.3,91.7,1455.2z"/>
<path fill="#F1C410" d="M112.2,1452c-0.7,0.1-1.3,0.2-2,0.3C110.9,1452.3,111.6,1452.2,112.2,1452z"/>
<path fill="#F1C410" d="M123.5,1449.8c-0.4,0.1-0.8,0.2-1.2,0.3C122.7,1450,123.1,1449.9,123.5,1449.8z"/>
<path fill="#F1C410" d="M139.6,1446.2c-0.7,0.2-1.5,0.4-2.2,0.6C138.1,1446.6,138.9,1446.4,139.6,1446.2z"/>
<path fill="#F1C410" d="M366,1302.6c-0.8,1-1.6,2-2.4,3C364.4,1304.6,365.2,1303.6,366,1302.6z"/>
<path fill="#F1C410" d="M369.1,1298.8c-0.8,1-1.6,2.1-2.5,3.1C367.4,1300.9,368.3,1299.8,369.1,1298.8z"/>
<path fill="#F1C410" d="M438.9,1172.1c-0.5,1.5-1,3-1.6,4.4C437.9,1175.1,438.4,1173.6,438.9,1172.1z"/>
<path fill="#F1C410" d="M375.2,1291c-0.9,1.2-1.8,2.3-2.7,3.5C373.4,1293.4,374.3,1292.2,375.2,1291z"/>
<path fill="#F1C410" d="M353.3,1317.5c-0.8,0.9-1.7,1.9-2.5,2.8C351.6,1319.3,352.4,1318.4,353.3,1317.5z"/>
<path fill="#F1C410" d="M359.7,1310.1c-0.8,0.9-1.6,1.9-2.5,2.8C358.1,1312,358.9,1311.1,359.7,1310.1z"/>
<path fill="#F1C410" d="M440.5,1167.5c-0.5,1.5-1,2.9-1.5,4.4C439.5,1170.4,440,1168.9,440.5,1167.5z"/>
<path fill="#F1C410" d="M362.9,1306.4c-0.8,1-1.6,1.9-2.4,2.9C361.2,1308.3,362.1,1307.4,362.9,1306.4z"/>
<path fill="#F1C410" d="M356.5,1313.8c-0.8,0.9-1.7,1.9-2.5,2.8C354.8,1315.7,355.7,1314.8,356.5,1313.8z"/>
<path fill="#F1C410" d="M397.1,1259.5c-6.8,10.8-14.1,21.4-21.9,31.5C382.9,1280.8,390.2,1270.3,397.1,1259.5z"/>
<path fill="#F1C410" d="M372.1,1294.9c-0.8,1.1-1.7,2.2-2.6,3.2C370.5,1297.1,371.3,1296,372.1,1294.9z"/>
<path fill="#F1C410" d="M411.6,1234.5c-0.7,1.3-1.4,2.6-2.1,3.9C410.2,1237.1,410.9,1235.8,411.6,1234.5z"/>
<path fill="#F1C410" d="M409.3,1238.8c-0.7,1.3-1.4,2.5-2.1,3.8C407.9,1241.3,408.6,1240.1,409.3,1238.8z"/>
<path fill="#F1C410" d="M406.9,1243.1c-0.7,1.2-1.4,2.5-2.1,3.7C405.5,1245.6,406.2,1244.3,406.9,1243.1z"/>
<path fill="#F1C410" d="M435.7,1181.2c-6.2,16.8-13.5,33.1-21.7,48.8C422.2,1214.3,429.5,1198,435.7,1181.2z"/>
<path fill="#F1C410" d="M404.4,1247.3c-0.7,1.2-1.5,2.5-2.2,3.7C403,1249.8,403.7,1248.5,404.4,1247.3z"/>
<path fill="#F1C410" d="M399.5,1255.5c-0.8,1.3-1.6,2.6-2.4,3.8C397.9,1258.1,398.7,1256.8,399.5,1255.5z"/>
<path fill="#F1C410" d="M437.3,1176.7c-0.5,1.5-1.1,3-1.6,4.5C436.2,1179.7,436.8,1178.2,437.3,1176.7z"/>
<path fill="#F1C410" d="M457.7,1095.1c-0.2,1.6-0.5,3.2-0.7,4.9C457.2,1098.3,457.4,1096.7,457.7,1095.1z"/>
<path fill="#F1C410" d="M402,1251.4c-0.7,1.3-1.5,2.5-2.3,3.7C400.5,1253.9,401.2,1252.7,402,1251.4z"/>
<path fill="#F1C410" d="M292.9,1372.9c-0.8,0.6-1.7,1.3-2.5,1.9C291.2,1374.2,292.1,1373.5,292.9,1372.9z"/>
<path fill="#F1C410" d="M308.4,1360.7c-0.8,0.7-1.7,1.4-2.5,2.1C306.7,1362,307.6,1361.3,308.4,1360.7z"/>
<path fill="#F1C410" d="M312.2,1357.5c-0.8,0.7-1.7,1.4-2.5,2.1C310.5,1358.9,311.3,1358.2,312.2,1357.5z"/>
<path fill="#F1C410" d="M304.6,1363.8c-0.8,0.7-1.6,1.3-2.5,2C302.9,1365.1,303.7,1364.5,304.6,1363.8z"/>
<path fill="#F1C410" d="M442.1,1162.7c-0.5,1.5-1,3-1.5,4.5C441.1,1165.7,441.6,1164.2,442.1,1162.7z"/>
<path fill="#F1C410" d="M458.4,1090.1c-0.2,1.6-0.4,3.2-0.7,4.8C457.9,1093.3,458.1,1091.7,458.4,1090.1z"/>
<path fill="#F1C410" d="M413.9,1230.1c-0.7,1.3-1.4,2.7-2.1,4C412.5,1232.8,413.2,1231.5,413.9,1230.1z"/>
<path fill="#F1C410" d="M443.5,1158c-0.5,1.5-0.9,3.1-1.4,4.6C442.6,1161,443.1,1159.5,443.5,1158z"/>
<path fill="#F1C410" d="M300.7,1366.9c-0.8,0.7-1.7,1.3-2.5,2C299.1,1368.2,299.9,1367.5,300.7,1366.9z"/>
<path fill="#F1C410" d="M296.8,1369.9c-0.8,0.6-1.7,1.3-2.5,1.9C295.2,1371.2,296,1370.6,296.8,1369.9z"/>
<path fill="#F1C410" d="M315.9,1354.3c-0.9,0.7-1.7,1.5-2.6,2.2C314.2,1355.7,315.1,1355,315.9,1354.3z"/>
<path fill="#F1C410" d="M319.6,1351c-0.9,0.8-1.8,1.6-2.7,2.3C317.9,1352.6,318.7,1351.8,319.6,1351z"/>
<path fill="#F1C410" d="M456.9,1099.9c-3.1,19.8-7.6,39.2-13.4,58C449.3,1139.1,453.8,1119.8,456.9,1099.9z"/>
<path fill="#F1C410" d="M350,1321c-0.9,1-1.8,1.9-2.6,2.9C348.3,1322.9,349.2,1322,350,1321z"/>
<path fill="#F1C410" d="M346.8,1324.5c-0.9,1-1.9,2-2.8,3C345,1326.5,345.9,1325.5,346.8,1324.5z"/>
<path fill="#F1C410" d="M323.3,1347.7c-0.9,0.9-1.9,1.7-2.8,2.5C321.4,1349.4,322.4,1348.5,323.3,1347.7z"/>
<path fill="#E2AD17" d="M-32.9,986.1c-3,3.4-5.8,6.8-8.5,10.4c18-11.1,39-17.5,61.6-17.5h184.8v0.7l-47.8,56.8H157l-1.6,1.9H26.6
	c-30.3,0-57.5,12.8-76.7,33.3c-12.6,14.2-21.4,31.7-24.9,51.1v140.2H94.5c48.3,0,91.8-20.6,122.2-53.5
	c26.3-29.4,42.3-68.3,42.3-110.9V932.3H89.6C41,932.3-2.6,953-32.9,986.1z"/>
<path fill="#E2AD17" d="M47.3,1458.6c0.7,0,1.4,0,2.1-0.1c1.1,0,2.1-0.1,3.2-0.1c0.8,0,1.5-0.1,2.3-0.1c1,0,2-0.1,3-0.1
	c0.8,0,1.5-0.1,2.3-0.1c1-0.1,2-0.1,3-0.2c0.8,0,1.6-0.1,2.4-0.2c1-0.1,1.9-0.1,2.9-0.2c0.8-0.1,1.6-0.1,2.4-0.2
	c1-0.1,1.9-0.2,2.9-0.2c0.8-0.1,1.6-0.1,2.4-0.2c0.9-0.1,1.9-0.2,2.8-0.3c0.8-0.1,1.6-0.2,2.4-0.2c0.9-0.1,1.9-0.2,2.8-0.3
	c0.8-0.1,1.6-0.2,2.4-0.3c0.9-0.1,1.9-0.2,2.8-0.3c0.8-0.1,1.6-0.2,2.3-0.3c0.9-0.1,1.9-0.3,2.8-0.4c0.8-0.1,1.5-0.2,2.3-0.3
	c1-0.1,1.9-0.3,2.9-0.4c0.8-0.1,1.5-0.2,2.3-0.3c1-0.2,2-0.3,2.9-0.5c0.7-0.1,1.5-0.2,2.2-0.4c1-0.2,2.1-0.4,3.1-0.5
	c0.7-0.1,1.3-0.2,2-0.3c1.1-0.2,2.3-0.4,3.4-0.6c0.6-0.1,1.1-0.2,1.7-0.3c1.7-0.3,3.4-0.7,5-1c0.4-0.1,0.8-0.2,1.2-0.3
	c1.3-0.3,2.5-0.5,3.8-0.8c0.7-0.1,1.3-0.3,2-0.4c1-0.2,2-0.5,3-0.7c0.7-0.2,1.4-0.3,2.1-0.5c0.9-0.2,1.9-0.4,2.8-0.7
	c0.7-0.2,1.5-0.4,2.2-0.6c0.9-0.2,1.8-0.5,2.7-0.7c0.8-0.2,1.5-0.4,2.3-0.6c0.9-0.2,1.8-0.5,2.6-0.7c0.8-0.2,1.5-0.4,2.3-0.6
	c0.9-0.2,1.7-0.5,2.6-0.7c0.8-0.2,1.6-0.4,2.3-0.7c0.9-0.2,1.7-0.5,2.6-0.7c0.8-0.2,1.6-0.5,2.3-0.7c0.8-0.3,1.7-0.5,2.5-0.8
	c0.8-0.2,1.6-0.5,2.3-0.7c0.8-0.3,1.7-0.5,2.5-0.8c0.8-0.2,1.6-0.5,2.3-0.8c0.8-0.3,1.7-0.5,2.5-0.8c0.8-0.3,1.5-0.5,2.3-0.8
	c0.8-0.3,1.6-0.6,2.5-0.9c0.8-0.3,1.5-0.5,2.3-0.8c0.8-0.3,1.6-0.6,2.5-0.9c0.8-0.3,1.5-0.6,2.3-0.8c0.8-0.3,1.6-0.6,2.4-0.9
	c0.8-0.3,1.5-0.6,2.3-0.9c0.8-0.3,1.6-0.6,2.5-1c0.7-0.3,1.5-0.6,2.2-0.9c0.8-0.3,1.7-0.7,2.5-1c0.8-0.3,1.7-0.7,2.5-1
	c1.4-0.6,2.8-1.1,4.2-1.7c0.8-0.3,1.5-0.7,2.3-1c0.8-0.3,1.6-0.7,2.3-1c0.8-0.3,1.6-0.7,2.3-1c0.7-0.3,1.5-0.7,2.2-1
	c0.8-0.4,1.6-0.7,2.4-1.1c0.7-0.3,1.5-0.7,2.2-1c0.8-0.4,1.6-0.8,2.4-1.1c0.7-0.3,1.4-0.7,2.1-1c0.8-0.4,1.6-0.8,2.4-1.2
	c0.7-0.3,1.4-0.7,2.1-1c0.8-0.4,1.6-0.8,2.4-1.2c0.7-0.3,1.4-0.7,2.1-1c0.8-0.4,1.6-0.8,2.4-1.2c0.7-0.4,1.4-0.7,2-1.1
	c0.8-0.4,1.6-0.8,2.4-1.3c0.7-0.4,1.3-0.7,2-1.1c0.8-0.4,1.6-0.9,2.4-1.3c0.7-0.4,1.3-0.7,1.9-1.1c0.8-0.4,1.6-0.9,2.4-1.3
	c0.6-0.4,1.3-0.7,1.9-1.1c0.8-0.5,1.6-0.9,2.4-1.4c0.6-0.4,1.2-0.7,1.8-1.1c0.8-0.5,1.7-1,2.5-1.5c0.6-0.3,1.2-0.7,1.7-1
	c0.8-0.5,1.7-1,2.5-1.5c0.5-0.3,1.1-0.7,1.6-1c0.9-0.5,1.8-1.1,2.6-1.6c0.4-0.3,0.9-0.5,1.3-0.8c1-0.6,1.9-1.2,2.9-1.8
	c0,0,0,0,0.1,0c3.8-2.4,7.5-4.9,11.2-7.4c0.3-0.2,0.6-0.4,0.8-0.6c0.9-0.7,1.9-1.3,2.8-2c0.4-0.3,0.8-0.6,1.2-0.9
	c0.9-0.6,1.8-1.3,2.7-1.9c0.4-0.3,0.9-0.6,1.3-1c0.9-0.6,1.7-1.3,2.6-1.9c0.5-0.3,0.9-0.7,1.4-1c0.8-0.6,1.7-1.3,2.5-1.9
	c0.5-0.4,0.9-0.7,1.4-1.1c0.8-0.6,1.7-1.3,2.5-1.9c0.5-0.4,0.9-0.7,1.4-1.1c0.8-0.6,1.7-1.3,2.5-2c0.5-0.4,0.9-0.7,1.4-1.1
	c0.8-0.7,1.7-1.3,2.5-2c0.4-0.4,0.9-0.7,1.3-1.1c0.8-0.7,1.7-1.4,2.5-2.1c0.4-0.4,0.8-0.7,1.3-1.1c0.8-0.7,1.7-1.4,2.5-2.1
	c0.4-0.3,0.8-0.7,1.2-1c0.9-0.7,1.7-1.5,2.6-2.2c0.4-0.3,0.7-0.6,1.1-0.9c0.9-0.8,1.8-1.6,2.7-2.3c0.3-0.3,0.6-0.5,0.9-0.8
	c0.9-0.8,1.9-1.7,2.8-2.5c0.2-0.1,0.3-0.3,0.5-0.4c6.9-6.3,13.5-12.8,19.9-19.5c0.1-0.1,0.2-0.2,0.3-0.3c0.9-1,1.9-2,2.8-3
	c0.2-0.2,0.4-0.4,0.6-0.6c0.9-0.9,1.8-1.9,2.6-2.9c0.2-0.2,0.5-0.5,0.7-0.7c0.9-0.9,1.7-1.9,2.5-2.8c0.2-0.3,0.5-0.5,0.7-0.8
	c0.8-0.9,1.7-1.9,2.5-2.8c0.2-0.3,0.5-0.6,0.7-0.9c0.8-0.9,1.6-1.9,2.5-2.8c0.2-0.3,0.5-0.6,0.7-0.9c0.8-1,1.6-1.9,2.4-2.9
	c0.2-0.3,0.5-0.6,0.7-0.8c0.8-1,1.6-2,2.4-3c0.2-0.3,0.4-0.5,0.6-0.8c0.8-1,1.7-2,2.5-3.1c0.2-0.2,0.3-0.4,0.5-0.6
	c0.9-1.1,1.7-2.1,2.6-3.2c0.1-0.1,0.2-0.3,0.3-0.4c0.9-1.2,1.8-2.3,2.7-3.5c0,0,0,0,0-0.1c7.7-10.2,15-20.7,21.9-31.5
	c0,0,0-0.1,0.1-0.1c0.8-1.3,1.6-2.6,2.4-3.8c0.1-0.1,0.1-0.2,0.2-0.3c0.8-1.2,1.5-2.5,2.3-3.7c0.1-0.1,0.2-0.3,0.3-0.4
	c0.7-1.2,1.5-2.5,2.2-3.7c0.1-0.2,0.2-0.3,0.3-0.5c0.7-1.2,1.4-2.5,2.1-3.7c0.1-0.2,0.2-0.3,0.3-0.5c0.7-1.3,1.4-2.5,2.1-3.8
	c0.1-0.1,0.2-0.3,0.2-0.4c0.7-1.3,1.4-2.6,2.1-3.9c0.1-0.1,0.1-0.2,0.2-0.3c0.7-1.3,1.4-2.7,2.1-4c0,0,0.1-0.1,0.1-0.2
	c8.2-15.7,15.5-32,21.7-48.8c0,0,0,0,0,0c0.6-1.5,1.1-3,1.6-4.5c0-0.1,0-0.1,0.1-0.2c0.5-1.5,1-2.9,1.6-4.4c0-0.1,0.1-0.2,0.1-0.2
	c0.5-1.5,1-2.9,1.5-4.4c0-0.1,0.1-0.2,0.1-0.2c0.5-1.5,1-3,1.5-4.5c0-0.1,0-0.1,0.1-0.2c0.5-1.5,1-3.1,1.4-4.6c0,0,0,0,0,0
	c5.8-18.8,10.3-38.2,13.4-58c0,0,0,0,0,0c0.3-1.6,0.5-3.2,0.7-4.9c0-0.1,0-0.1,0-0.2c0.2-1.6,0.5-3.2,0.7-4.8c0-0.1,0-0.2,0-0.3
	c0.2-1.6,0.4-3.2,0.6-4.8c0-0.1,0-0.2,0-0.2c0.2-1.6,0.4-3.2,0.6-4.8c0-0.1,0-0.1,0-0.2c0.2-1.6,0.3-3.3,0.5-4.9l-0.4-80.8
	L327.5,861.9v233c0,60.7-23.3,116-61.4,157.5c-42.6,47.4-104.4,77.2-173.2,77.2h-228.5l172.2,129.1h0c1.8,0,3.6,0,5.3,0
	c0.6,0,1.2,0,1.8,0C44.9,1458.7,46.1,1458.6,47.3,1458.6z"/>
<path fill="#FFFFFF" d="M325.7,863.8H92.9c-128.6,0-232.8,104.2-232.8,232.8v233h4.4H92.9c68.8,0,130.6-29.8,173.2-77.2
	c37.1-41.2,59.6-95.8,59.6-155.6V863.8z M259,1098.8c0,42.6-16,81.5-42.3,110.9c-30.4,34-74.7,55.4-124,55.4H-76.8v-140.2
	c3.7-20.3,13.2-38.6,26.7-53.1c19.2-20.5,46.4-33.3,76.7-33.3h128.7l1.6-1.9l46.2-54.9v-0.7H18.3c-22.6,0-43.6,6.3-61.6,17.5
	c3.2-4.3,6.7-8.4,10.3-12.3c30.4-33.1,74-53.8,122.5-53.8H259V1098.8z"/>
</svg>
