<svg version="1.1" xmlns="http://www.w3.org/2000/svg" viewBox="0 0 347 349" fill="#F1C410">
  <g>
    <path d="M43.5,162.5C47.3,103.7,101.6,51,165.6,44.9l6.7-0.5c2.2-0.1,4.4-0.2,6.7-0.2c2.2,0,110.8,0.2,110.8,0.2
             C258.7,19.4,219.5,5.5,179,5.5C82.4,5.5,4,82.5,4,177.4c0,40.8,14.5,78.2,38.6,107.7C42.6,285.1,41.5,221.7,43.5,162.5z"/>
    <path d="M342.4,80.8C342.4,80.8,342.4,80.8,342.4,80.8l-132,0c-72.9,0-132,59.1-132,132l0,132.1c0,0,0,0,0,0h132
             c72.9,0,132-59.1,132-132L342.4,80.8C342.4,80.8,342.4,80.8,342.4,80.8z M304.6,214c0,52.1-42.2,94.3-94.3,94.3h-96.1c0,0,0,0,0,0
             l0-79.5c5-27.8,29.3-49,58.6-49h73l27.1-32.2v-0.4c0,0,0,0,0,0c0,0,0,0,0,0H168.1c-12.8,0-24.7,3.6-34.9,9.9
             c17.2-22.8,44.5-37.5,75.3-37.5h96.1c0,0,0,0,0,0c0,0,0,0,0,0L304.6,214z"/>
  </g>
</svg>
