<svg width="305" height="305" viewBox="0 0 305 305" fill="none" xmlns="http://www.w3.org/2000/svg">
<path d="M207.827 115.876C207.827 115.144 207.485 114.454 206.903 114.01C206.32 113.567 205.564 113.421 204.858 113.615C182.906 119.667 165.73 128.888 154.451 142.846C145.352 154.106 140.249 168.249 139.394 185.839C135.702 178.073 130.676 171.105 123.942 165.531C113.723 157.072 99.7863 152 81.1606 152C79.8651 152 78.8149 153.05 78.8149 154.346C78.8149 173.045 87.7532 185.976 100.22 193.618C110.287 199.789 122.601 202.492 134.323 202.174C135.672 208.215 137.402 217.362 138.62 227.075C139.987 237.978 140.636 249.039 139.622 257.152C139.14 261.008 141.876 264.525 145.732 265.007C149.589 265.489 153.106 262.754 153.588 258.897C154.826 248.995 153.989 236.522 152.585 225.324C151.352 215.498 149.625 206.227 148.21 199.79C148.478 199.716 148.748 199.641 149.02 199.565L149.025 199.564L149.196 199.516C161.105 196.211 175.887 192.108 187.598 180.341C199.446 168.436 207.827 149.06 207.827 115.876Z" fill="white"/>
<path d="M294.961 103.652C300.078 101.873 305.201 106.301 304.183 111.621L293.3 168.501C292.282 173.821 285.886 176.045 281.787 172.503L237.97 134.638C233.871 131.096 235.144 124.445 240.26 122.667L294.961 103.652Z" fill="white"/>
<path d="M1.00506 162.499C0.16076 167.927 4.473 172.652 9.96597 172.707C14.8589 172.756 18.94 169.048 19.7368 164.22C23.7614 139.837 34.5734 117.743 50.1675 99.9441C53.4379 96.2113 53.6614 90.6047 50.3962 86.8672C46.8326 82.7883 40.5485 82.5298 36.9426 86.5714C18.3236 107.44 5.50146 133.592 1.00506 162.499Z" fill="white"/>
<path d="M66.2629 61.2464C61.7025 64.2495 61.0754 70.5689 64.668 74.681C67.9071 78.3886 73.4344 78.9475 77.5708 76.2778C93.046 66.2897 110.779 59.4996 129.836 56.8423C134.734 56.1594 138.564 52.0922 138.564 47.1468C138.564 41.7108 133.97 37.3735 128.58 38.0745C105.782 41.0394 84.6061 49.1671 66.2629 61.2464Z" fill="white"/>
<path d="M18.8409 200.44C18.2742 195.475 14.2233 191.516 9.22632 191.466C3.84709 191.412 -0.512312 195.882 0.0487264 201.232C2.34597 223.139 9.39931 243.63 20.1575 261.654C21.7918 264.392 24.7808 266 27.9695 266H267.924C271.113 266 274.102 264.392 275.736 261.654C286.546 243.544 293.615 222.943 295.878 200.918C296.422 195.613 292.127 191.171 286.793 191.171C281.753 191.171 277.645 195.157 277.084 200.166C275.191 217.065 270.057 232.985 262.319 247.289C260.745 250.197 257.659 251.926 254.352 251.926H41.542C38.2349 251.926 35.1487 250.197 33.575 247.289C25.8782 233.062 20.7582 217.237 18.8409 200.44Z" fill="white"/>
<path d="M157.33 47.1468C157.33 41.7108 161.923 37.3735 167.314 38.0745C190.422 41.0797 211.864 49.3893 230.378 61.7417C234.817 64.7034 235.494 70.8443 232.09 74.954C228.877 78.8338 223.196 79.4619 218.98 76.7046C203.35 66.4831 185.385 59.5373 166.058 56.8423C161.16 56.1594 157.33 52.0922 157.33 47.1468Z" fill="white"/>
<path d="M246.249 100.544C243.076 96.8782 242.808 91.4322 245.901 87.6982C249.436 83.4306 255.891 83.0948 259.555 87.252C272.043 101.422 281.876 117.989 288.273 136.175C290.352 142.084 285.773 148.01 279.509 148.01C275.286 148.01 271.596 145.229 270.157 141.259C264.698 126.195 256.533 112.428 246.249 100.544Z" fill="white"/>
</svg>
