<svg width="303" height="303" viewBox="0 0 303 303" fill="none" xmlns="http://www.w3.org/2000/svg">
<rect width="303" height="303" rx="50" fill="#004D40"/>
<path d="M196.32 122.698C196.32 122.108 196.045 121.553 195.576 121.195C195.107 120.838 194.498 120.721 193.929 120.877C176.256 125.749 162.428 133.174 153.347 144.411C146.022 153.476 141.913 164.862 141.225 179.024C138.253 172.772 134.206 167.162 128.785 162.674C120.558 155.864 109.337 151.781 94.3416 151.781C93.2986 151.781 92.4531 152.626 92.4531 153.669C92.4531 168.724 99.6492 179.134 109.686 185.287C117.791 190.255 127.705 192.431 137.142 192.176C138.229 197.039 139.621 204.403 140.602 212.223C141.702 221 142.225 229.906 141.409 236.437C141.021 239.542 143.223 242.374 146.328 242.762C149.432 243.15 152.264 240.948 152.652 237.843C153.649 229.871 152.975 219.828 151.844 210.813C150.852 202.902 149.462 195.439 148.322 190.256C148.538 190.196 148.756 190.136 148.974 190.075L148.979 190.074L149.116 190.036C158.704 187.374 170.605 184.071 180.034 174.597C189.572 165.013 196.32 149.413 196.32 122.698Z" fill="white"/>
<path d="M266.47 112.856C270.59 111.424 274.715 114.988 273.895 119.272L265.133 165.065C264.314 169.348 259.164 171.138 255.865 168.287L220.587 137.802C217.288 134.951 218.312 129.596 222.432 128.164L266.47 112.856Z" fill="white"/>
<path d="M29.8092 160.233C29.1294 164.603 32.6012 168.407 37.0235 168.451C40.9628 168.491 44.2484 165.505 44.8899 161.619C48.1301 141.988 56.8348 124.201 69.3894 109.871C72.0224 106.865 72.2023 102.352 69.5735 99.3426C66.7045 96.0586 61.6453 95.8506 58.7422 99.1044C43.7521 115.905 33.4292 136.96 29.8092 160.233Z" fill="white"/>
<path d="M82.3477 78.7155C78.6761 81.1332 78.1713 86.221 81.0636 89.5316C83.6714 92.5165 88.1214 92.9665 91.4516 90.8171C103.911 82.7758 118.187 77.3092 133.53 75.1698C137.473 74.6199 140.557 71.3455 140.557 67.364C140.557 62.9875 136.858 59.4956 132.519 60.06C114.164 62.447 97.1157 68.9906 82.3477 78.7155Z" fill="white"/>
<path d="M44.1687 190.779C43.7124 186.781 40.451 183.594 36.428 183.554C32.0973 183.511 28.5875 187.109 29.0392 191.417C30.8887 209.054 36.5673 225.551 45.2286 240.062C46.5444 242.266 48.9508 243.561 51.518 243.561H244.703C247.271 243.561 249.677 242.266 250.993 240.062C259.695 225.482 265.387 208.896 267.208 191.164C267.647 186.893 264.189 183.316 259.895 183.316C255.837 183.316 252.529 186.526 252.078 190.558C250.554 204.164 246.421 216.98 240.19 228.496C238.923 230.838 236.439 232.23 233.776 232.23H62.4451C59.7826 232.23 57.2979 230.838 56.031 228.496C49.8343 217.043 45.7123 204.302 44.1687 190.779Z" fill="white"/>
<path d="M155.665 67.364C155.665 62.9875 159.363 59.4956 163.703 60.06C182.307 62.4795 199.569 69.1695 214.475 79.1143C218.049 81.4986 218.594 86.4427 215.854 89.7513C213.267 92.8749 208.693 93.3806 205.299 91.1607C192.716 82.9315 178.252 77.3395 162.692 75.1698C158.748 74.6199 155.665 71.3455 155.665 67.364Z" fill="white"/>
<path d="M227.253 110.354C224.698 107.402 224.483 103.018 226.973 100.012C229.818 96.5758 235.015 96.3054 237.965 99.6523C248.02 111.061 255.936 124.399 261.086 139.04C262.76 143.797 259.073 148.568 254.03 148.568C250.63 148.568 247.66 146.329 246.501 143.133C242.106 131.005 235.532 119.921 227.253 110.354Z" fill="white"/>
</svg>
